<svg width="163" height="50" viewBox="0 0 163 50" fill="none" xmlns="http://www.w3.org/2000/svg">
<g id="Group 47474" opacity="0.4">
<path id="Ellipse 222" d="M162.438 24.965C162.438 28.1507 160.316 31.2827 156.246 34.2138C152.187 37.1363 146.282 39.789 138.939 42.0252C124.261 46.4957 103.953 49.2682 81.5 49.2682C59.0469 49.2682 38.7389 46.4957 24.0607 42.0252C16.7185 39.789 10.8131 37.1363 6.75444 34.2138C2.68398 31.2827 0.5625 28.1507 0.5625 24.965C0.5625 21.7794 2.68398 18.6473 6.75444 15.7163C10.8131 12.7937 16.7185 10.141 24.0607 7.90485C38.7389 3.43436 59.0469 0.661865 81.5 0.661865C103.953 0.661865 124.261 3.43436 138.939 7.90485C146.282 10.141 152.187 12.7937 156.246 15.7163C160.316 18.6473 162.438 21.7794 162.438 24.965Z" stroke="url(#paint0_linear_0_69)"/>
<path id="Ellipse 223" d="M139.297 24.965C139.297 27.164 137.825 29.3573 134.925 31.4349C132.037 33.5039 127.826 35.3877 122.577 36.9782C112.086 40.1572 97.5633 42.1309 81.5 42.1309C65.4367 42.1309 50.9136 40.1572 40.4228 36.9782C35.1742 35.3877 30.9632 33.5039 28.0754 31.4349C25.1755 29.3573 23.703 27.164 23.703 24.965C23.703 22.7659 25.1755 20.5727 28.0754 18.4951C30.9632 16.4261 35.1742 14.5423 40.4228 12.9518C50.9136 9.77274 65.4367 7.79907 81.5 7.79907C97.5633 7.79907 112.086 9.77274 122.577 12.9518C127.826 14.5423 132.037 16.4261 134.925 18.4951C137.825 20.5727 139.297 22.7659 139.297 24.965Z" stroke="url(#paint1_linear_0_69)"/>
<path id="Ellipse 224" d="M104.064 24.9649C104.064 25.6899 103.578 26.4787 102.461 27.279C101.356 28.0707 99.7245 28.8042 97.6639 29.4286C93.5489 30.6756 87.8339 31.4543 81.4997 31.4543C75.1656 31.4543 69.4506 30.6756 65.3356 29.4286C63.2749 28.8042 61.6438 28.0707 60.5389 27.279C59.4218 26.4787 58.9351 25.6899 58.9351 24.9649C58.9351 24.24 59.4218 23.4511 60.5389 22.6508C61.6438 21.8592 63.2749 21.1257 65.3356 20.5012C69.4506 19.2542 75.1656 18.4756 81.4997 18.4756C87.8339 18.4756 93.5489 19.2542 97.6639 20.5012C99.7245 21.1257 101.356 21.8592 102.461 22.6508C103.578 23.4511 104.064 24.24 104.064 24.9649Z" stroke="url(#paint2_linear_0_69)"/>
</g>
<defs>
<linearGradient id="paint0_linear_0_69" x1="-51.8921" y1="0.161875" x2="148.84" y2="162.548" gradientUnits="userSpaceOnUse">
<stop stop-color="#DF1CFF"/>
<stop offset="1" stop-color="#EA0070"/>
</linearGradient>
<linearGradient id="paint1_linear_0_69" x1="-13.9887" y1="7.29908" x2="129.13" y2="123.664" gradientUnits="userSpaceOnUse">
<stop stop-color="#DF1CFF"/>
<stop offset="1" stop-color="#EA0070"/>
</linearGradient>
<linearGradient id="paint2_linear_0_69" x1="43.7206" y1="17.9756" x2="100.344" y2="64.0142" gradientUnits="userSpaceOnUse">
<stop stop-color="#DF1CFF"/>
<stop offset="1" stop-color="#EA0070"/>
</linearGradient>
</defs>
</svg>
